Coordinates
version=1
nRows=19
nColumns=24
inDegrees=yes

Units are S.I. units (second, meters, Newtons, ...)
Angles are in degrees.

endheader
time	pelvis_tilt	pelvis_list	pelvis_rotation	pelvis_tx	pelvis_ty	pelvis_tz	hip_flexion_r	hip_adduction_r	hip_rotation_r	knee_angle_r	ankle_angle_r	subtalar_angle_r	mtp_angle_r	hip_flexion_l	hip_adduction_l	hip_rotation_l	knee_angle_l	ankle_angle_l	subtalar_angle_l	mtp_angle_l	lumbar_extension	lumbar_bending	lumbar_rotation
      1.74200000	     -0.28534459	      2.71170594	     -3.89418787	      1.27136573	      1.00311976	      0.27439377	     22.49225541	     -6.89149779	     -4.86498188	    -78.82743325	     -4.24836862	     -5.44150718	     -0.06473711	     15.39336255	      3.37422747	     -9.49664390	    -16.54690291	      0.02008674	    -11.51229695	     -0.03448588	    -10.47302095	     -6.96570327	      2.36180396
      1.74616667	     -0.14991871	      2.58971079	     -3.56914104	      1.27604589	      1.00441168	      0.27357490	     22.99853166	     -6.79704911	     -5.19498105	    -78.65420322	     -3.89725096	     -5.30636455	      0.04196592	     14.79910940	      3.40557702	     -9.16644592	    -16.22809365	      0.07334239	    -11.43116006	     -0.01640667	    -10.69721380	     -6.74985663	      2.05648000
      1.75033333	     -0.01270647	      2.45657970	     -3.23807985	      1.28078483	      1.00573292	      0.27272755	     23.47187133	     -6.70476746	     -5.54896308	    -78.41188214	     -3.58815847	     -5.24937274	      0.18023078	     14.19034112	      3.42502373	     -8.81476185	    -15.89315854	      0.08174408	    -11.40978875	      0.00533817	    -10.91875529	     -6.51927105	      1.70120508
      1.75450000	      0.13152410	      2.34953671	     -2.95452869	      1.28550673	      1.00701502	      0.27198578	     23.94561235	     -6.62479433	     -5.84827658	    -78.14373164	     -3.24637958	     -5.13516977	      0.30326085	     13.56582759	      3.44934959	     -8.53807953	    -15.53731738	      0.11743883	    -11.34288412	      0.03242409	    -11.13524643	     -6.32330721	      1.45279936
      1.75866667	      0.24131008	      2.26446123	     -2.69225573	      1.29020948	      1.00818942	      0.27131183	     24.45849190	     -6.56105800	     -6.11824497	    -77.84990431	     -2.90546632	     -4.97844656	      0.37441277	     12.97960890	      3.47854818	     -8.30451784	    -15.18421455	      0.19118734	    -11.21143827	      0.05024931	    -11.30526837	     -6.15445119	      1.24490345
      1.76283333	      0.31899925	      2.17977184	     -2.47774290	      1.29485843	      1.00926645	      0.27080863	     25.01607399	     -6.46185805	     -6.34454466	    -77.52913120	     -2.52337063	     -4.95483697	      0.40569103	     12.43791418	      3.47924951	     -8.13609299	    -14.84604832	      0.18479308	    -11.09281877	      0.05851621	    -11.44301979	     -6.00160348	      1.12109898
      1.76700000	      0.54230606	      2.05417448	     -2.15424299	      1.29956389	      1.01065672	      0.26991234	     25.32929216	     -6.42411192	     -6.71366840	    -77.08517548	     -2.23101699	     -4.76797762	      0.46897405	     11.71071484	      3.49433729	     -7.78741044	    -14.44956052	      0.25006188	    -11.08062839	      0.07933954	    -11.74727869	     -5.75411998	      0.74525376
      1.77116667	      0.65860068	      1.93376482	     -1.88450055	      1.30422009	      1.01179858	      0.26925720	     25.78080968	     -6.34009555	     -7.02241850	    -76.63110692	     -1.91593655	     -4.68561884	      0.52010358	     11.12181397	      3.46982386	     -7.53271376	    -14.10339181	      0.29133184	    -10.99453511	      0.09975066	    -11.92917821	     -5.55235138	      0.53448150
      1.77533333	      0.70722328	      1.88016683	     -1.71486534	      1.30886698	      1.01273511	      0.26884965	     26.33864527	     -6.26957170	     -7.20578619	    -76.18843897	     -1.56818147	     -4.66264458	      0.53849142	     10.59918074	      3.48144602	     -7.41163882	    -13.73256632	      0.28266515	    -10.89065258	      0.10718121	    -12.02000703	     -5.43270555	      0.43829810
      1.77950000	      0.93578786	      1.74592220	     -1.39758719	      1.31351194	      1.01403924	      0.26800072	     26.60584566	     -6.23419176	     -7.58868596	    -75.60979362	     -1.27982181	     -4.51370782	      0.58357065	      9.87901818	      3.46265087	     -7.06740465	    -13.35594955	      0.34473958	    -10.87954596	      0.13528117	    -12.33698353	     -5.17120134	      0.08122768
      1.78366667	      0.96349138	      1.69311859	     -1.25487934	      1.31810436	      1.01485489	      0.26769680	     27.16693656	     -6.15239289	     -7.74239992	    -75.08487589	     -0.92644221	     -4.42150601	      0.59674618	      9.39006290	      3.45636831	     -6.97497654	    -13.00662472	      0.36114466	    -10.77887542	      0.14336549	    -12.40068756	     -5.07445641	      0.02482053
      1.78783333	      1.10889706	      1.58818790	     -1.00915464	      1.32272780	      1.01591774	      0.26707644	     27.52020988	     -6.10519070	     -8.03746087	    -74.44766668	     -0.62151015	     -4.19441514	      0.61587139	      8.77028375	      3.42779112	     -6.74771545	    -12.65684477	      0.46551485	    -10.69120571	      0.16584407	    -12.60544430	     -4.87333006	     -0.20152981
      1.79200000	      1.20229266	      1.50495405	     -0.81906226	      1.32733117	      1.01684494	      0.26661031	     27.93823548	     -6.04525813	     -8.27408985	    -73.78775887	     -0.29382072	     -4.06061077	      0.62729236	      8.20169611	      3.40452694	     -6.56945036	    -12.28013624	      0.47317377	    -10.64816303	      0.18651623	    -12.75037371	     -4.70500486	     -0.37749896
      1.79616667	      1.26041335	      1.43542145	     -0.63152004	      1.33193360	      1.01764747	      0.26616867	     28.38553617	     -5.99738301	     -8.49473724	    -73.10063746	      0.00295255	     -3.92183179	      0.63273161	      7.68842037	      3.38692994	     -6.40838160	    -11.94504004	      0.52908663	    -10.57215978	      0.20899228	    -12.85550256	     -4.55717460	     -0.50531883
      1.80033333	      1.32592207	      1.36666123	     -0.45104881	      1.33650938	      1.01843313	      0.26577087	     28.80757338	     -5.94963076	     -8.71639851	    -72.36234206	      0.30805791	     -3.76348830	      0.63249562	      7.16947107	      3.36316741	     -6.26082004	    -11.61164951	      0.58227312	    -10.50365226	      0.23203260	    -12.96363073	     -4.42232348	     -0.65636440
      1.80450000	      1.36920568	      1.31289267	     -0.28284359	      1.34106450	      1.01911873	      0.26538524	     29.24302725	     -5.91525342	     -8.91760602	    -71.59778904	      0.61157162	     -3.58873636	      0.62735532	      6.68301838	      3.35231834	     -6.10289278	    -11.29887230	      0.64327325	    -10.44691744	      0.25454868	    -13.04972856	     -4.29415977	     -0.77297133
      1.80866667	      1.40565330	      1.25870310	     -0.11539684	      1.34560046	      1.01977629	      0.26503015	     29.66697279	     -5.87878191	     -9.12116569	    -70.77973107	      0.90039530	     -3.43490855	      0.61342435	      6.20527809	      3.33486323	     -5.95773996	    -10.97400108	      0.68601558	    -10.38292248	      0.28361180	    -13.12842112	     -4.17140490	     -0.90237123
      1.81283333	      1.38088881	      1.23232734	     -0.01345901	      1.35014030	      1.02024868	      0.26487045	     30.16735621	     -5.82072295	     -9.23458738	    -69.95052906	      1.17841472	     -3.29550075	      0.60997430	      5.80202095	      3.32847356	     -5.89029642	    -10.67462875	      0.72374653	    -10.31120068	      0.29351100	    -13.13683178	     -4.10026935	     -0.95505425
      1.81700000	      1.41708471	      1.18005616	      0.17965643	      1.35465890	      1.02082383	      0.26444656	     30.54463195	     -5.81213270	     -9.46020204	    -69.04177434	      1.43981156	     -3.04530429	      0.59039167	      5.34797448	      3.31166730	     -5.71749760	    -10.40001855	      0.84928237	    -10.22424005	      0.32424612	    -13.22609180	     -3.96037677	     -1.10010475
